<svg width="500" height="271" viewBox="0 0 500 271" fill="none" xmlns="http://www.w3.org/2000/svg">
<rect width="500" height="271" fill="white"/>
<rect width="250" height="271" fill="#2D2D2D"/>
<g clip-path="url(#clip0_401_36082)">
<path d="M100.997 123.021V142.286L103.479 142.295V133.126H109.476V130.699H103.479V125.448H111.285V123.021H100.997ZM115.766 126.931C116.666 126.931 117.386 126.204 117.386 125.316C117.386 124.429 116.656 123.701 115.766 123.701C114.866 123.701 114.146 124.429 114.146 125.316C114.146 126.204 114.875 126.931 115.766 126.931ZM114.506 129.358V142.286H116.988V129.358H114.506Z" fill="#F5F6F7"/>
<path fill-rule="evenodd" clip-rule="evenodd" d="M126.205 128.979C122.899 128.979 120.597 131.764 120.597 135.069C120.597 138.374 122.899 141.16 126.205 141.16C127.721 141.16 128.962 140.575 129.871 139.63V141.34C129.871 143.483 128.185 145.268 125.977 145.268C125.182 145.268 124.395 144.966 123.77 144.531L122.52 146.684C123.514 147.327 124.699 147.695 125.968 147.695C129.492 147.695 132.344 144.852 132.344 141.34V129.356H129.871V130.508C128.962 129.564 127.721 128.979 126.205 128.979ZM123.088 135.069C123.088 133.02 124.661 131.405 126.48 131.405C128.298 131.405 129.871 133.02 129.871 135.069C129.871 137.119 128.298 138.733 126.48 138.733C124.661 138.733 123.088 137.119 123.088 135.069Z" fill="#F5F6F7"/>
<path d="M141.315 131.405C139.847 131.405 138.653 132.652 138.653 134.116V142.284H136.171V129.356H138.653V130.537C139.382 129.602 140.453 128.979 141.855 128.979C143.598 128.979 144.934 129.838 145.71 131.16C146.573 129.885 147.975 128.979 149.67 128.979C152.503 128.979 154.265 131.254 154.274 134.068V142.284H151.792V134.106C151.792 132.642 150.599 131.396 149.13 131.396C147.662 131.396 146.468 132.642 146.468 134.106V142.284H143.986V134.106C143.977 132.642 142.783 131.405 141.315 131.405Z" fill="#F5F6F7"/>
<path fill-rule="evenodd" clip-rule="evenodd" d="M167.518 130.82C166.41 129.677 164.894 128.979 163.142 128.979C159.447 128.979 156.813 132.104 156.813 135.825C156.813 139.545 159.438 142.671 163.142 142.671C164.894 142.671 166.41 141.963 167.518 140.83V142.284H170V129.356H167.518V130.82ZM159.305 135.825C159.305 133.36 161.2 131.405 163.416 131.405C165.624 131.405 167.528 133.351 167.528 135.825C167.528 138.289 165.633 140.244 163.416 140.244C161.2 140.235 159.305 138.289 159.305 135.825Z" fill="#F5F6F7"/>
<path d="M87.3457 135.504C87.3457 133.21 89.2119 131.34 91.5234 131.34C93.8254 131.34 95.7011 133.2 95.7011 135.504C95.7011 137.799 93.8349 139.669 91.5234 139.669C89.2214 139.669 87.3457 137.799 87.3457 135.504Z" fill="#1ABCFE"/>
<path d="M79 143.825C79 141.53 80.8662 139.66 83.1777 139.66H87.3554V143.825C87.3554 146.119 85.4892 147.989 83.1777 147.989C80.8662 147.989 79 146.129 79 143.825Z" fill="#0ACF83"/>
<path d="M87.3457 123.021V131.341H91.5234C93.8254 131.341 95.7011 129.48 95.7011 127.176C95.7011 124.881 93.8349 123.012 91.5234 123.012H87.3457V123.021Z" fill="#FF7262"/>
<path d="M79 127.186C79 129.481 80.8662 131.35 83.1777 131.35H87.3554V123.021H83.1777C80.8662 123.021 79 124.882 79 127.186Z" fill="#F24E1E"/>
<path d="M79 135.504C79 137.799 80.8662 139.669 83.1777 139.669H87.3554V131.34H83.1777C80.8662 131.34 79 133.21 79 135.504Z" fill="#A259FF"/>
</g>
<g clip-path="url(#clip1_401_36082)">
<path d="M408 123H350V152H379.319" fill="url(#paint0_linear_401_36082)"/>
<path d="M378.681 128.801V142.463L373.71 128.801H368.738L364.532 140.143C364.022 137.307 361.09 136.276 358.795 135.503C357.266 134.987 355.609 134.343 355.609 133.441C355.609 132.796 356.501 132.152 358.158 132.281C359.305 132.41 360.325 132.41 362.365 133.441L364.404 129.961C362.492 128.93 359.943 128.414 357.903 128.414C355.481 128.414 353.442 129.187 352.167 130.476C351.275 131.379 350.892 132.539 350.765 133.827C350.765 135.632 351.402 136.921 352.804 137.952C353.951 138.725 355.354 139.241 356.628 139.627C358.286 140.143 359.56 140.659 359.56 141.561C359.433 142.721 358.158 142.979 357.266 142.979C355.736 143.107 354.461 142.85 352.549 141.69L350.765 145.17C352.677 146.33 354.716 146.845 357.138 146.845C358.795 146.845 361.345 146.33 362.747 145.041L362.492 146.201H367.336L368.228 144.01C370.14 144.525 372.308 144.654 374.22 144.01L374.857 146.201H383.525V141.045H385.31C389.771 141.045 392.448 138.854 392.448 134.987C392.448 130.605 389.899 128.801 384.417 128.801H378.681ZM369.376 140.143L371.16 134.343H371.288L373.072 140.143C371.798 140.53 370.523 140.53 369.376 140.143ZM383.525 137.179V132.539H384.8C386.457 132.539 387.732 133.054 387.732 134.73C387.732 136.534 386.457 137.179 384.8 137.179H383.525Z" fill="white"/>
</g>
<defs>
<linearGradient id="paint0_linear_401_36082" x1="350" y1="123" x2="350" y2="152" gradientUnits="userSpaceOnUse">
<stop stop-color="#00AAEE"/>
<stop offset="1" stop-color="#0055AA"/>
</linearGradient>
<clipPath id="clip0_401_36082">
<rect width="91" height="25" fill="white" transform="translate(79 123)"/>
</clipPath>
<clipPath id="clip1_401_36082">
<rect width="58" height="29" fill="white" transform="translate(350 123)"/>
</clipPath>
</defs>
</svg>
